<svg xmlns="http://www.w3.org/2000/svg" width="320" height="96" viewBox="0 0 320 96" preserveAspectRatio="xMidYMid meet" overflow="hidden">
  <rect x="0" y="0" width="320" height="96" fill="#000000" fill-opacity="0.004"/><defs>
    <linearGradient id="bg" x1="0" y1="0" x2="1" y2="1">
      <stop offset="0" stop-color="#171C24"/>
      <stop offset=".38" stop-color="#05070A"/>
      <stop offset=".78" stop-color="#030405"/>
      <stop offset="1" stop-color="#11151B"/>
    </linearGradient>
    <linearGradient id="edge" x1="0" y1="0" x2="1" y2="1">
      <stop offset="0" stop-color="#9CDEFF"/>
      <stop offset=".36" stop-color="#268BE5"/>
      <stop offset=".65" stop-color="#FFFFFF"/>
      <stop offset=".78" stop-color="#268BE5"/>
      <stop offset="1" stop-color="#9CDEFF"/>
    </linearGradient>
    <linearGradient id="iconFill" x1="0" y1="0" x2="1" y2="1">
      <stop offset="0" stop-color="#FFFFFF"/>
      <stop offset=".25" stop-color="#9CDEFF"/>
      <stop offset=".65" stop-color="#268BE5"/>
      <stop offset="1" stop-color="#0B0D12"/>
    </linearGradient>
    <linearGradient id="gold" x1="0" y1="0" x2="1" y2="1">
      <stop offset="0" stop-color="#FFF1A8"/>
      <stop offset=".3" stop-color="#FFD45E"/>
      <stop offset=".72" stop-color="#B56A00"/>
      <stop offset="1" stop-color="#FFF1A8"/>
    </linearGradient>
    <filter id="glow" x="-40%" y="-40%" width="180%" height="180%">
      <feGaussianBlur stdDeviation="3" result="b"/>
      <feMerge><feMergeNode in="b"/><feMergeNode in="SourceGraphic"/></feMerge>
    </filter>
    <filter id="soft" x="-20%" y="-20%" width="140%" height="140%">
      <feGaussianBlur stdDeviation="1.2"/>
    </filter>
  </defs>
  <g transform="scale(0.8888888889)"><rect x="2" y="2" width="356" height="104" rx="20" fill="#0A1019" stroke="#070B12" stroke-width="1.5"/><rect x="3" y="3" width="354" height="102" rx="22" fill="url(#bg)" stroke="#000000" stroke-width="3"/>
  <rect x="6" y="6" width="348" height="96" rx="19" fill="none" stroke="url(#edge)" stroke-width="3.6" filter="url(#glow)"/>
  <rect x="10" y="10" width="340" height="88" rx="16" fill="none" stroke="#FFFFFF" stroke-opacity=".24" stroke-width="1.2"/>
  <path d="M18 17H330C250 21 173 34 111 62C79 77 45 82 18 82Z" fill="#FFFFFF" opacity=".035"/>
  <circle cx="24" cy="23" r="11" fill="#080A0D" stroke="#9CDEFF" stroke-width="2"/>
  <g aria-label="良" fill="#9CDEFF" transform="translate(16.7500 28.0000) scale(0.0145000 -0.0145000)"><path d="M711 483V403H285V483ZM711 578H285V652H711ZM162 -98C191 -82 239 -72 520 -6C514 20 508 71 508 105L285 57V298H403C498 105 651 -19 887 -75C902 -42 937 8 964 34C880 50 806 75 742 108C797 141 857 180 908 219L808 296C765 257 701 210 642 174C598 210 562 251 533 298H834V757H579C570 790 557 829 542 859L418 833C427 810 436 783 443 757H160V105C160 51 122 12 97 -7C117 -26 151 -72 162 -98Z" transform="translate(0.0000 0)"/></g><g filter="url(#glow)"><circle cx="69" cy="55" r="35" fill="#05070A" stroke="#268BE5" stroke-width="2.2"/><circle cx="69" cy="55" r="31" fill="url(#iconFill)" opacity=".34"/><circle cx="69" cy="55" r="32" fill="none" stroke="#9CDEFF" stroke-opacity=".58" stroke-width="2"/><g transform="translate(41 27) scale(.94)"><rect x="6" y="13" width="48" height="32" rx="4" fill="none" stroke="#9CDEFF" stroke-width="2.7" stroke-linecap="round" stroke-linejoin="round"/><path d="M30 45v8m-13 0h26M22 5l8 8 8-8" fill="none" stroke="#9CDEFF" stroke-width="2.7" stroke-linecap="round" stroke-linejoin="round"/></g></g><path d="M112 21v66" stroke="#9CDEFF" stroke-opacity=".55" stroke-width="1.8"/><g aria-label="HDTV" fill="#FFFFFF" transform="translate(124.0000 55.0000) scale(0.0360000 -0.0360000)"><path d="M91 0H239V320H519V0H666V741H519V448H239V741H91Z" transform="translate(0.0000 0)"/><path d="M91 0H302C521 0 660 124 660 374C660 623 521 741 294 741H91ZM239 120V622H284C423 622 509 554 509 374C509 194 423 120 284 120Z" transform="translate(757.0000 0)"/><path d="M238 0H386V617H595V741H30V617H238Z" transform="translate(1471.0000 0)"/><path d="M221 0H398L624 741H474L378 380C355 298 339 224 315 141H310C287 224 271 298 248 380L151 741H-5Z" transform="translate(2096.0000 0)"/></g><g aria-label="AAC" fill="#9CDEFF" transform="translate(124.0000 82.0000) scale(0.0220000 -0.0220000)"><path d="M-4 0H146L198 190H437L489 0H645L408 741H233ZM230 305 252 386C274 463 295 547 315 628H319C341 549 361 463 384 386L406 305Z" transform="translate(0.0000 0)"/><path d="M-4 0H146L198 190H437L489 0H645L408 741H233ZM230 305 252 386C274 463 295 547 315 628H319C341 549 361 463 384 386L406 305Z" transform="translate(641.0000 0)"/><path d="M392 -14C489 -14 568 24 629 95L550 187C511 144 462 114 398 114C281 114 206 211 206 372C206 531 289 627 401 627C457 627 500 601 538 565L615 659C567 709 493 754 398 754C211 754 54 611 54 367C54 120 206 -14 392 -14Z" transform="translate(1282.0000 0)"/></g></g></svg>
