<svg xmlns="http://www.w3.org/2000/svg" width="320" height="96" viewBox="0 0 320 96" preserveAspectRatio="xMidYMid meet" overflow="hidden">
  <rect x="0" y="0" width="320" height="96" fill="#000000" fill-opacity="0.004"/><defs>
    <linearGradient id="bg" x1="0" y1="0" x2="1" y2="1">
      <stop offset="0" stop-color="#171C24"/>
      <stop offset=".38" stop-color="#05070A"/>
      <stop offset=".78" stop-color="#030405"/>
      <stop offset="1" stop-color="#11151B"/>
    </linearGradient>
    <linearGradient id="edge" x1="0" y1="0" x2="1" y2="1">
      <stop offset="0" stop-color="#FFD18B"/>
      <stop offset=".36" stop-color="#F37B27"/>
      <stop offset=".65" stop-color="#FFFFFF"/>
      <stop offset=".78" stop-color="#F37B27"/>
      <stop offset="1" stop-color="#FFD18B"/>
    </linearGradient>
    <linearGradient id="iconFill" x1="0" y1="0" x2="1" y2="1">
      <stop offset="0" stop-color="#FFFFFF"/>
      <stop offset=".25" stop-color="#FFD18B"/>
      <stop offset=".65" stop-color="#F37B27"/>
      <stop offset="1" stop-color="#0B0D12"/>
    </linearGradient>
    <linearGradient id="gold" x1="0" y1="0" x2="1" y2="1">
      <stop offset="0" stop-color="#FFF1A8"/>
      <stop offset=".3" stop-color="#FFD45E"/>
      <stop offset=".72" stop-color="#B56A00"/>
      <stop offset="1" stop-color="#FFF1A8"/>
    </linearGradient>
    <filter id="glow" x="-40%" y="-40%" width="180%" height="180%">
      <feGaussianBlur stdDeviation="3" result="b"/>
      <feMerge><feMergeNode in="b"/><feMergeNode in="SourceGraphic"/></feMerge>
    </filter>
    <filter id="soft" x="-20%" y="-20%" width="140%" height="140%">
      <feGaussianBlur stdDeviation="1.2"/>
    </filter>
  </defs>
  <g transform="scale(0.8888888889)"><rect x="2" y="2" width="356" height="104" rx="20" fill="#0A1019" stroke="#070B12" stroke-width="1.5"/><rect x="3" y="3" width="354" height="102" rx="22" fill="url(#bg)" stroke="#000000" stroke-width="3"/>
  <rect x="6" y="6" width="348" height="96" rx="19" fill="none" stroke="url(#edge)" stroke-width="3.6" filter="url(#glow)"/>
  <rect x="10" y="10" width="340" height="88" rx="16" fill="none" stroke="#FFFFFF" stroke-opacity=".24" stroke-width="1.2"/>
  <path d="M18 17H330C250 21 173 34 111 62C79 77 45 82 18 82Z" fill="#FFFFFF" opacity=".035"/>
  <circle cx="24" cy="23" r="11" fill="#080A0D" stroke="#FFD18B" stroke-width="2"/>
  <g aria-label="良" fill="#FFD18B" transform="translate(16.7500 28.0000) scale(0.0145000 -0.0145000)"><path d="M711 483V403H285V483ZM711 578H285V652H711ZM162 -98C191 -82 239 -72 520 -6C514 20 508 71 508 105L285 57V298H403C498 105 651 -19 887 -75C902 -42 937 8 964 34C880 50 806 75 742 108C797 141 857 180 908 219L808 296C765 257 701 210 642 174C598 210 562 251 533 298H834V757H579C570 790 557 829 542 859L418 833C427 810 436 783 443 757H160V105C160 51 122 12 97 -7C117 -26 151 -72 162 -98Z" transform="translate(0.0000 0)"/></g><g filter="url(#glow)"><circle cx="69" cy="55" r="35" fill="#05070A" stroke="#F37B27" stroke-width="2.2"/>
  <circle cx="69" cy="55" r="31" fill="url(#iconFill)" opacity=".34"/>
  <circle cx="69" cy="55" r="32" fill="none" stroke="#FFD18B" stroke-opacity=".58" stroke-width="2" filter="url(#glow)"/><rect x="42" y="39" width="54" height="34" rx="7" fill="#11100A" stroke="#FFD18B" stroke-width="3"/><g aria-label="HDR" fill="#FFD18B" transform="translate(47.4700 62.0000) scale(0.0200000 -0.0200000)"><path d="M91 0H239V320H519V0H666V741H519V448H239V741H91Z" transform="translate(0.0000 0)"/><path d="M91 0H302C521 0 660 124 660 374C660 623 521 741 294 741H91ZM239 120V622H284C423 622 509 554 509 374C509 194 423 120 284 120Z" transform="translate(757.0000 0)"/><path d="M239 397V623H335C430 623 482 596 482 516C482 437 430 397 335 397ZM494 0H659L486 303C571 336 627 405 627 516C627 686 504 741 348 741H91V0H239V280H342Z" transform="translate(1471.0000 0)"/></g></g>
  <path d="M112 21v66" stroke="#FFD18B" stroke-opacity=".55" stroke-width="1.8"/>
  <g aria-label="HDR10 TrueHD" fill="#FFFFFF" transform="translate(124.0000 55.0000) scale(0.0299590 -0.0299590)"><path d="M91 0H239V320H519V0H666V741H519V448H239V741H91Z" transform="translate(0.0000 0)"/><path d="M91 0H302C521 0 660 124 660 374C660 623 521 741 294 741H91ZM239 120V622H284C423 622 509 554 509 374C509 194 423 120 284 120Z" transform="translate(757.0000 0)"/><path d="M239 397V623H335C430 623 482 596 482 516C482 437 430 397 335 397ZM494 0H659L486 303C571 336 627 405 627 516C627 686 504 741 348 741H91V0H239V280H342Z" transform="translate(1471.0000 0)"/><path d="M82 0H527V120H388V741H279C232 711 182 692 107 679V587H242V120H82Z" transform="translate(2153.0000 0)"/><path d="M295 -14C446 -14 546 118 546 374C546 628 446 754 295 754C144 754 44 629 44 374C44 118 144 -14 295 -14ZM295 101C231 101 183 165 183 374C183 580 231 641 295 641C359 641 406 580 406 374C406 165 359 101 295 101Z" transform="translate(2743.0000 0)"/><path d="M238 0H386V617H595V741H30V617H238Z" transform="translate(3560.0000 0)"/><path d="M79 0H226V334C258 415 310 444 353 444C377 444 393 441 413 435L437 562C421 569 403 574 372 574C314 574 254 534 213 461H210L199 560H79Z" transform="translate(4185.0000 0)"/><path d="M246 -14C323 -14 376 24 424 81H428L439 0H559V560H412V182C374 132 344 112 299 112C244 112 219 142 219 229V560H73V211C73 70 125 -14 246 -14Z" transform="translate(4621.0000 0)"/><path d="M323 -14C392 -14 463 10 518 48L468 138C427 113 388 100 343 100C259 100 199 147 187 238H532C536 252 539 279 539 306C539 462 459 574 305 574C172 574 44 461 44 280C44 95 166 -14 323 -14ZM184 337C196 418 248 460 307 460C380 460 413 412 413 337Z" transform="translate(5258.0000 0)"/><path d="M91 0H239V320H519V0H666V741H519V448H239V741H91Z" transform="translate(5839.0000 0)"/><path d="M91 0H302C521 0 660 124 660 374C660 623 521 741 294 741H91ZM239 120V622H284C423 622 509 554 509 374C509 194 423 120 284 120Z" transform="translate(6596.0000 0)"/></g><g aria-label="静态HDR+TrueHD" fill="#FFD18B" transform="translate(124.0000 82.0000) scale(0.0220000 -0.0220000)"><path d="M592 850C563 762 512 674 452 614V648H316V684H475V768H316V850H205V768H47V684H205V648H72V567H205V528H31V442H485V528H316V567H452V595C471 581 495 562 512 547V487H620V413H473V314H620V237H506V140H620V37C620 24 615 21 603 21C590 21 549 21 508 23C524 -8 541 -56 545 -87C609 -87 654 -84 688 -66C722 -49 731 -17 731 36V140H810V102H918V314H973V413H918V584H784C815 626 845 673 866 714L793 761L777 756H670C680 779 689 802 697 825ZM624 666H718C703 638 685 609 667 584H569C589 609 607 637 624 666ZM810 237H731V314H810ZM810 413H731V487H810ZM188 197H334V152H188ZM188 275V319H334V275ZM84 406V-90H188V74H334V20C334 10 330 7 320 6C310 6 278 6 247 7C261 -19 275 -60 280 -89C335 -89 373 -87 403 -70C433 -55 441 -27 441 19V406Z" transform="translate(0.0000 0)"/><path d="M375 392C433 359 506 308 540 273L651 341C611 376 536 424 479 454ZM263 244V73C263 -36 299 -69 438 -69C467 -69 602 -69 632 -69C745 -69 780 -33 794 111C762 118 711 136 686 154C680 53 672 38 623 38C589 38 476 38 450 38C392 38 382 42 382 74V244ZM404 256C456 204 518 132 544 84L643 146C613 194 549 263 496 311ZM740 229C787 141 836 24 852 -48L966 -8C947 66 894 178 846 262ZM130 252C113 164 80 66 39 0L147 -55C188 17 218 127 238 216ZM442 860C438 812 433 766 425 721H47V611H391C344 504 247 416 36 362C62 337 91 291 103 261C352 332 462 451 515 594C592 433 709 327 898 274C915 308 950 359 977 384C816 420 705 498 636 611H956V721H549C557 766 562 813 566 860Z" transform="translate(1000.0000 0)"/><path d="M91 0H239V320H519V0H666V741H519V448H239V741H91Z" transform="translate(2000.0000 0)"/><path d="M91 0H302C521 0 660 124 660 374C660 623 521 741 294 741H91ZM239 120V622H284C423 622 509 554 509 374C509 194 423 120 284 120Z" transform="translate(2757.0000 0)"/><path d="M239 397V623H335C430 623 482 596 482 516C482 437 430 397 335 397ZM494 0H659L486 303C571 336 627 405 627 516C627 686 504 741 348 741H91V0H239V280H342Z" transform="translate(3471.0000 0)"/><path d="M240 110H349V322H551V427H349V640H240V427H39V322H240Z" transform="translate(4153.0000 0)"/><path d="M238 0H386V617H595V741H30V617H238Z" transform="translate(4743.0000 0)"/><path d="M79 0H226V334C258 415 310 444 353 444C377 444 393 441 413 435L437 562C421 569 403 574 372 574C314 574 254 534 213 461H210L199 560H79Z" transform="translate(5368.0000 0)"/><path d="M246 -14C323 -14 376 24 424 81H428L439 0H559V560H412V182C374 132 344 112 299 112C244 112 219 142 219 229V560H73V211C73 70 125 -14 246 -14Z" transform="translate(5804.0000 0)"/><path d="M323 -14C392 -14 463 10 518 48L468 138C427 113 388 100 343 100C259 100 199 147 187 238H532C536 252 539 279 539 306C539 462 459 574 305 574C172 574 44 461 44 280C44 95 166 -14 323 -14ZM184 337C196 418 248 460 307 460C380 460 413 412 413 337Z" transform="translate(6441.0000 0)"/><path d="M91 0H239V320H519V0H666V741H519V448H239V741H91Z" transform="translate(7022.0000 0)"/><path d="M91 0H302C521 0 660 124 660 374C660 623 521 741 294 741H91ZM239 120V622H284C423 622 509 554 509 374C509 194 423 120 284 120Z" transform="translate(7779.0000 0)"/></g></g></svg>
