<svg xmlns="http://www.w3.org/2000/svg" width="320" height="96" viewBox="0 0 320 96" preserveAspectRatio="xMidYMid meet" overflow="hidden">
<rect x="0" y="0" width="320" height="96" fill="#000000" fill-opacity="0.004"/><defs>
  <linearGradient id="edge" x1="0" y1="0" x2="1" y2="1">
    <stop offset="0" stop-color="#F4C65D" stop-opacity=".95"/>
    <stop offset=".52" stop-color="#FFFFFF" stop-opacity=".48"/>
    <stop offset="1" stop-color="#F4C65D" stop-opacity=".95"/>
  </linearGradient>
</defs>
<rect x="2" y="2" width="316" height="92" rx="20" fill="#0A1019" stroke="#070B12" stroke-width="1.5"/><rect x="3" y="3" width="314" height="90" rx="19" fill="#101722" stroke="url(#edge)" stroke-width="2.5" fill-opacity="1"/>
<rect x="7" y="7" width="306" height="82" rx="16" fill="none" stroke="#FFFFFF" stroke-opacity=".14" stroke-width="1"/>
<circle cx="20" cy="18" r="9.5" fill="none" stroke="#F4C65D" stroke-width="1.6"/>
  <g aria-label="良" fill="#F4C65D" transform="translate(13.7500 22.5000) scale(0.0125000 -0.0125000)"><path d="M711 483V403H285V483ZM711 578H285V652H711ZM162 -98C191 -82 239 -72 520 -6C514 20 508 71 508 105L285 57V298H403C498 105 651 -19 887 -75C902 -42 937 8 964 34C880 50 806 75 742 108C797 141 857 180 908 219L808 296C765 257 701 210 642 174C598 210 562 251 533 298H834V757H579C570 790 557 829 542 859L418 833C427 810 436 783 443 757H160V105C160 51 122 12 97 -7C117 -26 151 -72 162 -98Z" transform="translate(0.0000 0)"/></g><circle cx="61" cy="49" r="26" fill="none" stroke="#F4C65D" stroke-width="2.1" stroke-opacity=".75"/><path d="M43 51h4v-9h4v18h4V35h4v28h4V39h4v21h4V44h4v14h4V49h3" fill="none" stroke="#F4C65D" stroke-width="2.7" stroke-linejoin="round"/>
<path d="M106 20v56" stroke="#F4C65D" stroke-opacity=".45" stroke-width="1.5"/>
<g aria-label="FLAC" fill="#FFFFFF" transform="translate(114.0000 47.0000) scale(0.0377000 -0.0377000)"><path d="M91 0H239V300H502V424H239V617H547V741H91Z" transform="translate(0.0000 0)"/><path d="M91 0H540V124H239V741H91Z" transform="translate(585.0000 0)"/><path d="M-4 0H146L198 190H437L489 0H645L408 741H233ZM230 305 252 386C274 463 295 547 315 628H319C341 549 361 463 384 386L406 305Z" transform="translate(1163.0000 0)"/><path d="M392 -14C489 -14 568 24 629 95L550 187C511 144 462 114 398 114C281 114 206 211 206 372C206 531 289 627 401 627C457 627 500 601 538 565L615 659C567 709 493 754 398 754C211 754 54 611 54 367C54 120 206 -14 392 -14Z" transform="translate(1804.0000 0)"/></g><g aria-label="LOSSLESS AUDIO" fill="#F4C65D" transform="translate(114.0000 73.0000) scale(0.0219858 -0.0219858)"><path d="M91 0H540V124H239V741H91Z" transform="translate(0.0000 0)"/><path d="M385 -14C581 -14 716 133 716 374C716 614 581 754 385 754C189 754 54 614 54 374C54 133 189 -14 385 -14ZM385 114C275 114 206 216 206 374C206 532 275 627 385 627C495 627 565 532 565 374C565 216 495 114 385 114Z" transform="translate(598.4545 0)"/><path d="M312 -14C483 -14 584 89 584 210C584 317 525 375 435 412L338 451C275 477 223 496 223 549C223 598 263 627 328 627C390 627 439 604 486 566L561 658C501 719 415 754 328 754C179 754 72 660 72 540C72 432 148 372 223 342L321 299C387 271 433 254 433 199C433 147 392 114 315 114C250 114 179 147 127 196L42 94C114 24 213 -14 312 -14Z" transform="translate(1388.9091 0)"/><path d="M312 -14C483 -14 584 89 584 210C584 317 525 375 435 412L338 451C275 477 223 496 223 549C223 598 263 627 328 627C390 627 439 604 486 566L561 658C501 719 415 754 328 754C179 754 72 660 72 540C72 432 148 372 223 342L321 299C387 271 433 254 433 199C433 147 392 114 315 114C250 114 179 147 127 196L42 94C114 24 213 -14 312 -14Z" transform="translate(2033.3636 0)"/><path d="M91 0H540V124H239V741H91Z" transform="translate(2677.8182 0)"/><path d="M91 0H556V124H239V322H498V446H239V617H545V741H91Z" transform="translate(3276.2727 0)"/><path d="M312 -14C483 -14 584 89 584 210C584 317 525 375 435 412L338 451C275 477 223 496 223 549C223 598 263 627 328 627C390 627 439 604 486 566L561 658C501 719 415 754 328 754C179 754 72 660 72 540C72 432 148 372 223 342L321 299C387 271 433 254 433 199C433 147 392 114 315 114C250 114 179 147 127 196L42 94C114 24 213 -14 312 -14Z" transform="translate(3911.7273 0)"/><path d="M312 -14C483 -14 584 89 584 210C584 317 525 375 435 412L338 451C275 477 223 496 223 549C223 598 263 627 328 627C390 627 439 604 486 566L561 658C501 719 415 754 328 754C179 754 72 660 72 540C72 432 148 372 223 342L321 299C387 271 433 254 433 199C433 147 392 114 315 114C250 114 179 147 127 196L42 94C114 24 213 -14 312 -14Z" transform="translate(4556.1818 0)"/><path d="M-4 0H146L198 190H437L489 0H645L408 741H233ZM230 305 252 386C274 463 295 547 315 628H319C341 549 361 463 384 386L406 305Z" transform="translate(5448.0909 0)"/><path d="M376 -14C556 -14 661 88 661 333V741H519V320C519 166 462 114 376 114C289 114 235 166 235 320V741H88V333C88 88 194 -14 376 -14Z" transform="translate(6109.5455 0)"/><path d="M91 0H302C521 0 660 124 660 374C660 623 521 741 294 741H91ZM239 120V622H284C423 622 509 554 509 374C509 194 423 120 284 120Z" transform="translate(6878.0000 0)"/><path d="M91 0H239V741H91Z" transform="translate(7612.4545 0)"/><path d="M385 -14C581 -14 716 133 716 374C716 614 581 754 385 754C189 754 54 614 54 374C54 133 189 -14 385 -14ZM385 114C275 114 206 216 206 374C206 532 275 627 385 627C495 627 565 532 565 374C565 216 495 114 385 114Z" transform="translate(7962.9091 0)"/></g></svg>
