<svg xmlns="http://www.w3.org/2000/svg" width="320" height="96" viewBox="0 0 320 96" preserveAspectRatio="xMidYMid meet" overflow="hidden">
  <rect x="0" y="0" width="320" height="96" fill="#000000" fill-opacity="0.004"/><defs>
    <linearGradient id="bg" x1="0" y1="0" x2="1" y2="1">
      <stop offset="0" stop-color="#171C24"/>
      <stop offset=".38" stop-color="#05070A"/>
      <stop offset=".78" stop-color="#030405"/>
      <stop offset="1" stop-color="#11151B"/>
    </linearGradient>
    <linearGradient id="edge" x1="0" y1="0" x2="1" y2="1">
      <stop offset="0" stop-color="#9CDEFF"/>
      <stop offset=".36" stop-color="#268BE5"/>
      <stop offset=".65" stop-color="#FFFFFF"/>
      <stop offset=".78" stop-color="#268BE5"/>
      <stop offset="1" stop-color="#9CDEFF"/>
    </linearGradient>
    <linearGradient id="iconFill" x1="0" y1="0" x2="1" y2="1">
      <stop offset="0" stop-color="#FFFFFF"/>
      <stop offset=".25" stop-color="#9CDEFF"/>
      <stop offset=".65" stop-color="#268BE5"/>
      <stop offset="1" stop-color="#0B0D12"/>
    </linearGradient>
    <linearGradient id="gold" x1="0" y1="0" x2="1" y2="1">
      <stop offset="0" stop-color="#FFF1A8"/>
      <stop offset=".3" stop-color="#FFD45E"/>
      <stop offset=".72" stop-color="#B56A00"/>
      <stop offset="1" stop-color="#FFF1A8"/>
    </linearGradient>
    <filter id="glow" x="-40%" y="-40%" width="180%" height="180%">
      <feGaussianBlur stdDeviation="3" result="b"/>
      <feMerge><feMergeNode in="b"/><feMergeNode in="SourceGraphic"/></feMerge>
    </filter>
    <filter id="soft" x="-20%" y="-20%" width="140%" height="140%">
      <feGaussianBlur stdDeviation="1.2"/>
    </filter>
  </defs>
  <g transform="scale(0.8888888889)"><rect x="3" y="3" width="354" height="102" rx="22" fill="url(#bg)" stroke="#000000" stroke-width="3"/>
  <rect x="6" y="6" width="348" height="96" rx="19" fill="none" stroke="url(#edge)" stroke-width="3.6" filter="url(#glow)"/>
  <rect x="10" y="10" width="340" height="88" rx="16" fill="none" stroke="#FFFFFF" stroke-opacity=".24" stroke-width="1.2"/>
  <path d="M18 17H330C250 21 173 34 111 62C79 77 45 82 18 82Z" fill="#FFFFFF" opacity=".035"/>
  <circle cx="24" cy="23" r="11" fill="#080A0D" stroke="#9CDEFF" stroke-width="2"/>
  <g aria-label="良" fill="#9CDEFF" transform="translate(16.7500 28.0000) scale(0.0145000 -0.0145000)"><path d="M711 483V403H285V483ZM711 578H285V652H711ZM162 -98C191 -82 239 -72 520 -6C514 20 508 71 508 105L285 57V298H403C498 105 651 -19 887 -75C902 -42 937 8 964 34C880 50 806 75 742 108C797 141 857 180 908 219L808 296C765 257 701 210 642 174C598 210 562 251 533 298H834V757H579C570 790 557 829 542 859L418 833C427 810 436 783 443 757H160V105C160 51 122 12 97 -7C117 -26 151 -72 162 -98Z" transform="translate(0.0000 0)"/></g><g filter="url(#glow)"><circle cx="69" cy="55" r="35" fill="#05070A" stroke="#268BE5" stroke-width="2.2"/><circle cx="69" cy="55" r="31" fill="url(#iconFill)" opacity=".34"/><circle cx="69" cy="55" r="32" fill="none" stroke="#9CDEFF" stroke-opacity=".58" stroke-width="2"/><g transform="translate(41 27) scale(.94)"><path d="M6 11h48v32H32L20 53V43H6V11z" fill="none" stroke="#9CDEFF" stroke-width="2.7" stroke-linecap="round" stroke-linejoin="round"/><g aria-label="文" fill="#9CDEFF" transform="translate(18.5000 35.0000) scale(0.0230000 -0.0230000)"><path d="M412 822C435 779 458 722 469 681H44V564H202C256 423 326 302 416 202C312 121 182 64 25 25C49 -3 85 -59 98 -88C259 -41 394 26 505 116C611 27 740 -39 898 -81C916 -48 952 4 979 31C828 65 702 125 598 204C687 301 755 420 806 564H960V681H524L609 708C597 749 567 813 540 860ZM507 286C430 365 370 459 326 564H672C631 454 577 362 507 286Z" transform="translate(0.0000 0)"/></g></g></g><path d="M112 21v66" stroke="#9CDEFF" stroke-opacity=".55" stroke-width="1.8"/><g aria-label="中文音轨" fill="#FFFFFF" transform="translate(124.0000 55.0000) scale(0.0360000 -0.0360000)"><path d="M434 850V676H88V169H208V224H434V-89H561V224H788V174H914V676H561V850ZM208 342V558H434V342ZM788 342H561V558H788Z" transform="translate(0.0000 0)"/><path d="M412 822C435 779 458 722 469 681H44V564H202C256 423 326 302 416 202C312 121 182 64 25 25C49 -3 85 -59 98 -88C259 -41 394 26 505 116C611 27 740 -39 898 -81C916 -48 952 4 979 31C828 65 702 125 598 204C687 301 755 420 806 564H960V681H524L609 708C597 749 567 813 540 860ZM507 286C430 365 370 459 326 564H672C631 454 577 362 507 286Z" transform="translate(1000.0000 0)"/><path d="M652 663C642 625 624 577 608 540H401C393 575 373 625 350 663ZM413 841C424 820 436 794 444 769H106V663H327L229 644C246 613 261 573 270 540H50V433H951V540H738L788 643L692 663H905V769H581C571 799 555 834 538 861ZM295 114H711V43H295ZM295 205V272H711V205ZM174 371V-91H295V-57H711V-90H837V371Z" transform="translate(2000.0000 0)"/><path d="M71 309C80 318 119 324 155 324H253V216L28 185L52 67L253 102V-87H367V123L474 143L468 249L367 233V324H465V432H367V574H253V432H180C209 490 239 557 266 628H458V741H305C315 771 324 802 332 832L206 857C199 819 189 779 179 741H41V628H144C123 565 103 516 92 496C71 453 55 425 32 418C46 388 65 331 71 309ZM480 661V548H563C561 383 545 144 405 -20C434 -37 474 -73 493 -96C644 94 669 357 672 548H735V48C735 -44 767 -69 832 -69H872C957 -69 972 -21 981 119C953 126 912 143 884 165C883 58 879 30 865 30H857C850 30 842 34 842 63V661H672V846H563V661Z" transform="translate(3000.0000 0)"/></g><g aria-label="CHINESE" fill="#9CDEFF" transform="translate(124.0000 82.0000) scale(0.0220000 -0.0220000)"><path d="M392 -14C489 -14 568 24 629 95L550 187C511 144 462 114 398 114C281 114 206 211 206 372C206 531 289 627 401 627C457 627 500 601 538 565L615 659C567 709 493 754 398 754C211 754 54 611 54 367C54 120 206 -14 392 -14Z" transform="translate(0.0000 0)"/><path d="M91 0H239V320H519V0H666V741H519V448H239V741H91Z" transform="translate(656.0000 0)"/><path d="M91 0H239V741H91Z" transform="translate(1413.0000 0)"/><path d="M91 0H232V297C232 382 219 475 213 555H218L293 396L506 0H657V741H517V445C517 361 529 263 537 186H532L457 346L242 741H91Z" transform="translate(1743.0000 0)"/><path d="M91 0H556V124H239V322H498V446H239V617H545V741H91Z" transform="translate(2492.0000 0)"/><path d="M312 -14C483 -14 584 89 584 210C584 317 525 375 435 412L338 451C275 477 223 496 223 549C223 598 263 627 328 627C390 627 439 604 486 566L561 658C501 719 415 754 328 754C179 754 72 660 72 540C72 432 148 372 223 342L321 299C387 271 433 254 433 199C433 147 392 114 315 114C250 114 179 147 127 196L42 94C114 24 213 -14 312 -14Z" transform="translate(3107.0000 0)"/><path d="M91 0H556V124H239V322H498V446H239V617H545V741H91Z" transform="translate(3731.0000 0)"/></g></g></svg>
