<svg xmlns="http://www.w3.org/2000/svg" width="320" height="96" viewBox="0 0 320 96" preserveAspectRatio="xMidYMid meet" overflow="hidden">
  <rect x="0" y="0" width="320" height="96" fill="#000000" fill-opacity="0.004"/><defs>
    <linearGradient id="bg" x1="0" y1="0" x2="1" y2="1">
      <stop offset="0" stop-color="#171C24"/>
      <stop offset=".38" stop-color="#05070A"/>
      <stop offset=".78" stop-color="#030405"/>
      <stop offset="1" stop-color="#11151B"/>
    </linearGradient>
    <linearGradient id="edge" x1="0" y1="0" x2="1" y2="1">
      <stop offset="0" stop-color="#FFE58A"/>
      <stop offset=".36" stop-color="#E8A819"/>
      <stop offset=".65" stop-color="#FFFFFF"/>
      <stop offset=".78" stop-color="#E8A819"/>
      <stop offset="1" stop-color="#FFE58A"/>
    </linearGradient>
    <linearGradient id="iconFill" x1="0" y1="0" x2="1" y2="1">
      <stop offset="0" stop-color="#FFFFFF"/>
      <stop offset=".25" stop-color="#FFE58A"/>
      <stop offset=".65" stop-color="#E8A819"/>
      <stop offset="1" stop-color="#0B0D12"/>
    </linearGradient>
    <linearGradient id="gold" x1="0" y1="0" x2="1" y2="1">
      <stop offset="0" stop-color="#FFF1A8"/>
      <stop offset=".3" stop-color="#FFD45E"/>
      <stop offset=".72" stop-color="#B56A00"/>
      <stop offset="1" stop-color="#FFF1A8"/>
    </linearGradient>
    <filter id="glow" x="-40%" y="-40%" width="180%" height="180%">
      <feGaussianBlur stdDeviation="3" result="b"/>
      <feMerge><feMergeNode in="b"/><feMergeNode in="SourceGraphic"/></feMerge>
    </filter>
    <filter id="soft" x="-20%" y="-20%" width="140%" height="140%">
      <feGaussianBlur stdDeviation="1.2"/>
    </filter>
  </defs>
  <g transform="scale(0.8888888889)"><rect x="3" y="3" width="354" height="102" rx="22" fill="url(#bg)" stroke="#000000" stroke-width="3"/>
  <rect x="6" y="6" width="348" height="96" rx="19" fill="none" stroke="url(#edge)" stroke-width="3.6" filter="url(#glow)"/>
  <rect x="10" y="10" width="340" height="88" rx="16" fill="none" stroke="#FFFFFF" stroke-opacity=".24" stroke-width="1.2"/>
  <path d="M18 17H330C250 21 173 34 111 62C79 77 45 82 18 82Z" fill="#FFFFFF" opacity=".035"/>
  <circle cx="24" cy="23" r="11" fill="#080A0D" stroke="#FFE58A" stroke-width="2"/>
  <g aria-label="良" fill="#FFE58A" transform="translate(16.7500 28.0000) scale(0.0145000 -0.0145000)"><path d="M711 483V403H285V483ZM711 578H285V652H711ZM162 -98C191 -82 239 -72 520 -6C514 20 508 71 508 105L285 57V298H403C498 105 651 -19 887 -75C902 -42 937 8 964 34C880 50 806 75 742 108C797 141 857 180 908 219L808 296C765 257 701 210 642 174C598 210 562 251 533 298H834V757H579C570 790 557 829 542 859L418 833C427 810 436 783 443 757H160V105C160 51 122 12 97 -7C117 -26 151 -72 162 -98Z" transform="translate(0.0000 0)"/></g><g filter="url(#glow)"><circle cx="69" cy="55" r="35" fill="#05070A" stroke="#E8A819" stroke-width="2.2"/>
  <circle cx="69" cy="55" r="31" fill="url(#iconFill)" opacity=".34"/>
  <circle cx="69" cy="55" r="32" fill="none" stroke="#FFE58A" stroke-opacity=".58" stroke-width="2" filter="url(#glow)"/><ellipse cx="69" cy="55" rx="29" ry="10" fill="none" stroke="#FF8A18" stroke-width="5" transform="rotate(-22 69 55)"/><ellipse cx="69" cy="55" rx="29" ry="10" fill="none" stroke="#FFC23E" stroke-width="3" transform="rotate(17 69 55)"/><ellipse cx="69" cy="55" rx="29" ry="10" fill="none" stroke="#FF5E00" stroke-width="2" transform="rotate(55 69 55)"/></g>
  <path d="M112 21v66" stroke="#FFE58A" stroke-opacity=".55" stroke-width="1.8"/>
  <g aria-label="DTS:X" fill="#FFFFFF" transform="translate(124.0000 67.0000) scale(0.0440000 -0.0440000)"><path d="M91 0H302C521 0 660 124 660 374C660 623 521 741 294 741H91ZM239 120V622H284C423 622 509 554 509 374C509 194 423 120 284 120Z" transform="translate(0.0000 0)"/><path d="M238 0H386V617H595V741H30V617H238Z" transform="translate(714.0000 0)"/><path d="M312 -14C483 -14 584 89 584 210C584 317 525 375 435 412L338 451C275 477 223 496 223 549C223 598 263 627 328 627C390 627 439 604 486 566L561 658C501 719 415 754 328 754C179 754 72 660 72 540C72 432 148 372 223 342L321 299C387 271 433 254 433 199C433 147 392 114 315 114C250 114 179 147 127 196L42 94C114 24 213 -14 312 -14Z" transform="translate(1339.0000 0)"/><path d="M163 366C215 366 254 407 254 461C254 516 215 557 163 557C110 557 71 516 71 461C71 407 110 366 163 366ZM163 -14C215 -14 254 28 254 82C254 137 215 178 163 178C110 178 71 137 71 82C71 28 110 -14 163 -14Z" transform="translate(1963.0000 0)"/><path d="M15 0H171L250 164C268 202 285 241 304 286H308C329 241 348 202 366 164L449 0H613L405 375L600 741H444L374 587C358 553 342 517 324 471H320C298 517 283 553 265 587L191 741H26L222 381Z" transform="translate(2288.0000 0)"/></g></g></svg>
